<svg xmlns="http://www.w3.org/2000/svg" xmlns:xlink="http://www.w3.org/1999/xlink" width="1920" zoomAndPan="magnify" viewBox="0 0 1440 809.999993" height="1080" preserveAspectRatio="xMidYMid meet" version="1.0"><defs><filter x="0%" y="0%" width="100%" height="100%" id="a92ac95d9b"><feColorMatrix values="0 0 0 0 1 0 0 0 0 1 0 0 0 0 1 0 0 0 1 0" color-interpolation-filters="sRGB"/></filter><g/><clipPath id="55b71ba583"><rect x="0" width="946" y="0" height="218"/></clipPath><clipPath id="77855af4a7"><path d="M 1.507812 0 L 758 0 L 758 810 L 1.507812 810 Z M 1.507812 0 " clip-rule="nonzero"/></clipPath><clipPath id="96ff7bb9e3"><path d="M 0.507812 0 L 757 0 L 757 810 L 0.507812 810 Z M 0.507812 0 " clip-rule="nonzero"/></clipPath><clipPath id="23213d61d4"><path d="M 0.507812 0 L 757 0 L 757 810 L 0.507812 810 Z M 0.507812 0 " clip-rule="nonzero"/></clipPath><linearGradient x1="-385.202" gradientTransform="matrix(0.826661, 0, 0, 0.826635, 318.939488, 294.750533)" y1="134" x2="529.915309" gradientUnits="userSpaceOnUse" y2="134" id="07a1fb0d85"><stop stop-opacity="1" stop-color="rgb(13.328552%, 29.019165%, 65.879822%)" offset="0"/><stop stop-opacity="1" stop-color="rgb(13.328552%, 29.019165%, 65.879822%)" offset="0.25"/><stop stop-opacity="1" stop-color="rgb(13.328552%, 29.019165%, 65.879822%)" offset="0.375"/><stop stop-opacity="1" stop-color="rgb(13.328552%, 29.019165%, 65.879822%)" offset="0.40625"/><stop stop-opacity="1" stop-color="rgb(13.378906%, 29.031372%, 65.896606%)" offset="0.421875"/><stop stop-opacity="1" stop-color="rgb(13.847351%, 29.150391%, 66.062927%)" offset="0.425781"/><stop stop-opacity="1" stop-color="rgb(14.265442%, 29.255676%, 66.210938%)" offset="0.429688"/><stop stop-opacity="1" stop-color="rgb(14.683533%, 29.359436%, 66.358948%)" offset="0.433594"/><stop stop-opacity="1" stop-color="rgb(15.101624%, 29.464722%, 66.506958%)" offset="0.4375"/><stop stop-opacity="1" stop-color="rgb(15.519714%, 29.570007%, 66.653442%)" offset="0.441406"/><stop stop-opacity="1" stop-color="rgb(15.937805%, 29.675293%, 66.801453%)" offset="0.445312"/><stop stop-opacity="1" stop-color="rgb(16.355896%, 29.780579%, 66.949463%)" offset="0.449219"/><stop stop-opacity="1" stop-color="rgb(16.773987%, 29.885864%, 67.097473%)" offset="0.453125"/><stop stop-opacity="1" stop-color="rgb(17.192078%, 29.99115%, 67.245483%)" offset="0.457031"/><stop stop-opacity="1" stop-color="rgb(17.610168%, 30.096436%, 67.393494%)" offset="0.460938"/><stop stop-opacity="1" stop-color="rgb(18.028259%, 30.201721%, 67.541504%)" offset="0.464844"/><stop stop-opacity="1" stop-color="rgb(18.44635%, 30.307007%, 67.689514%)" offset="0.46875"/><stop stop-opacity="1" stop-color="rgb(18.862915%, 30.412292%, 67.835999%)" offset="0.472656"/><stop stop-opacity="1" stop-color="rgb(19.281006%, 30.517578%, 67.984009%)" offset="0.476563"/><stop stop-opacity="1" stop-color="rgb(19.699097%, 30.622864%, 68.132019%)" offset="0.480469"/><stop stop-opacity="1" stop-color="rgb(20.117188%, 30.728149%, 68.280029%)" offset="0.484375"/><stop stop-opacity="1" stop-color="rgb(20.535278%, 30.833435%, 68.42804%)" offset="0.488281"/><stop stop-opacity="1" stop-color="rgb(20.953369%, 30.938721%, 68.57605%)" offset="0.492188"/><stop stop-opacity="1" stop-color="rgb(21.37146%, 31.044006%, 68.72406%)" offset="0.496094"/><stop stop-opacity="1" stop-color="rgb(21.789551%, 31.149292%, 68.87207%)" offset="0.5"/><stop stop-opacity="1" stop-color="rgb(22.207642%, 31.253052%, 69.018555%)" offset="0.503906"/><stop stop-opacity="1" stop-color="rgb(22.625732%, 31.358337%, 69.166565%)" offset="0.507812"/><stop stop-opacity="1" stop-color="rgb(23.043823%, 31.463623%, 69.314575%)" offset="0.511719"/><stop stop-opacity="1" stop-color="rgb(23.461914%, 31.568909%, 69.462585%)" offset="0.515625"/><stop stop-opacity="1" stop-color="rgb(23.878479%, 31.674194%, 69.610596%)" offset="0.519531"/><stop stop-opacity="1" stop-color="rgb(24.29657%, 31.77948%, 69.758606%)" offset="0.523438"/><stop stop-opacity="1" stop-color="rgb(24.714661%, 31.884766%, 69.906616%)" offset="0.527344"/><stop stop-opacity="1" stop-color="rgb(25.132751%, 31.990051%, 70.054626%)" offset="0.53125"/><stop stop-opacity="1" stop-color="rgb(25.550842%, 32.095337%, 70.201111%)" offset="0.535156"/><stop stop-opacity="1" stop-color="rgb(25.968933%, 32.200623%, 70.349121%)" offset="0.539062"/><stop stop-opacity="1" stop-color="rgb(26.387024%, 32.305908%, 70.497131%)" offset="0.542969"/><stop stop-opacity="1" stop-color="rgb(26.805115%, 32.411194%, 70.645142%)" offset="0.546875"/><stop stop-opacity="1" stop-color="rgb(27.223206%, 32.516479%, 70.793152%)" offset="0.550781"/><stop stop-opacity="1" stop-color="rgb(27.641296%, 32.621765%, 70.941162%)" offset="0.554688"/><stop stop-opacity="1" stop-color="rgb(28.057861%, 32.727051%, 71.089172%)" offset="0.558594"/><stop stop-opacity="1" stop-color="rgb(28.475952%, 32.832336%, 71.237183%)" offset="0.5625"/><stop stop-opacity="1" stop-color="rgb(28.894043%, 32.936096%, 71.383667%)" offset="0.566406"/><stop stop-opacity="1" stop-color="rgb(29.312134%, 33.041382%, 71.531677%)" offset="0.570312"/><stop stop-opacity="1" stop-color="rgb(29.730225%, 33.146667%, 71.679688%)" offset="0.574219"/><stop stop-opacity="1" stop-color="rgb(30.148315%, 33.251953%, 71.827698%)" offset="0.578125"/><stop stop-opacity="1" stop-color="rgb(30.566406%, 33.357239%, 71.975708%)" offset="0.582031"/><stop stop-opacity="1" stop-color="rgb(30.984497%, 33.462524%, 72.123718%)" offset="0.585938"/><stop stop-opacity="1" stop-color="rgb(31.402588%, 33.56781%, 72.271729%)" offset="0.589844"/><stop stop-opacity="1" stop-color="rgb(31.820679%, 33.673096%, 72.419739%)" offset="0.59375"/><stop stop-opacity="1" stop-color="rgb(32.23877%, 33.778381%, 72.566223%)" offset="0.597656"/><stop stop-opacity="1" stop-color="rgb(32.65686%, 33.883667%, 72.714233%)" offset="0.601562"/><stop stop-opacity="1" stop-color="rgb(33.073425%, 33.988953%, 72.862244%)" offset="0.605469"/><stop stop-opacity="1" stop-color="rgb(33.491516%, 34.094238%, 73.010254%)" offset="0.609375"/><stop stop-opacity="1" stop-color="rgb(33.909607%, 34.199524%, 73.158264%)" offset="0.613281"/><stop stop-opacity="1" stop-color="rgb(34.327698%, 34.30481%, 73.306274%)" offset="0.617188"/><stop stop-opacity="1" stop-color="rgb(34.745789%, 34.410095%, 73.454285%)" offset="0.621094"/><stop stop-opacity="1" stop-color="rgb(35.163879%, 34.515381%, 73.602295%)" offset="0.625"/><stop stop-opacity="1" stop-color="rgb(35.58197%, 34.620667%, 73.748779%)" offset="0.628906"/><stop stop-opacity="1" stop-color="rgb(36.000061%, 34.725952%, 73.89679%)" offset="0.632812"/><stop stop-opacity="1" stop-color="rgb(36.418152%, 34.829712%, 74.0448%)" offset="0.636719"/><stop stop-opacity="1" stop-color="rgb(36.836243%, 34.934998%, 74.19281%)" offset="0.640625"/><stop stop-opacity="1" stop-color="rgb(37.254333%, 35.040283%, 74.34082%)" offset="0.644531"/><stop stop-opacity="1" stop-color="rgb(37.672424%, 35.145569%, 74.488831%)" offset="0.648438"/><stop stop-opacity="1" stop-color="rgb(38.088989%, 35.250854%, 74.636841%)" offset="0.652344"/><stop stop-opacity="1" stop-color="rgb(38.50708%, 35.35614%, 74.784851%)" offset="0.65625"/><stop stop-opacity="1" stop-color="rgb(38.925171%, 35.461426%, 74.932861%)" offset="0.660156"/><stop stop-opacity="1" stop-color="rgb(39.343262%, 35.566711%, 75.080872%)" offset="0.664062"/><stop stop-opacity="1" stop-color="rgb(39.761353%, 35.671997%, 75.227356%)" offset="0.667969"/><stop stop-opacity="1" stop-color="rgb(40.179443%, 35.777283%, 75.375366%)" offset="0.671875"/><stop stop-opacity="1" stop-color="rgb(40.597534%, 35.882568%, 75.523376%)" offset="0.675781"/><stop stop-opacity="1" stop-color="rgb(41.015625%, 35.987854%, 75.671387%)" offset="0.679688"/><stop stop-opacity="1" stop-color="rgb(41.433716%, 36.09314%, 75.819397%)" offset="0.683594"/><stop stop-opacity="1" stop-color="rgb(41.851807%, 36.198425%, 75.967407%)" offset="0.6875"/><stop stop-opacity="1" stop-color="rgb(42.269897%, 36.303711%, 76.115417%)" offset="0.691406"/><stop stop-opacity="1" stop-color="rgb(42.687988%, 36.408997%, 76.263428%)" offset="0.695312"/><stop stop-opacity="1" stop-color="rgb(43.104553%, 36.512756%, 76.409912%)" offset="0.699219"/><stop stop-opacity="1" stop-color="rgb(43.522644%, 36.618042%, 76.557922%)" offset="0.703125"/><stop stop-opacity="1" stop-color="rgb(43.940735%, 36.723328%, 76.705933%)" offset="0.707031"/><stop stop-opacity="1" stop-color="rgb(44.358826%, 36.828613%, 76.853943%)" offset="0.710937"/><stop stop-opacity="1" stop-color="rgb(44.776917%, 36.933899%, 77.001953%)" offset="0.714844"/><stop stop-opacity="1" stop-color="rgb(45.195007%, 37.039185%, 77.149963%)" offset="0.71875"/><stop stop-opacity="1" stop-color="rgb(45.613098%, 37.14447%, 77.297974%)" offset="0.722656"/><stop stop-opacity="1" stop-color="rgb(46.031189%, 37.249756%, 77.445984%)" offset="0.726562"/><stop stop-opacity="1" stop-color="rgb(46.44928%, 37.355042%, 77.592468%)" offset="0.730469"/><stop stop-opacity="1" stop-color="rgb(46.867371%, 37.460327%, 77.740479%)" offset="0.734375"/><stop stop-opacity="1" stop-color="rgb(47.285461%, 37.565613%, 77.888489%)" offset="0.738281"/><stop stop-opacity="1" stop-color="rgb(47.703552%, 37.670898%, 78.036499%)" offset="0.742188"/><stop stop-opacity="1" stop-color="rgb(48.120117%, 37.776184%, 78.184509%)" offset="0.746094"/><stop stop-opacity="1" stop-color="rgb(48.538208%, 37.88147%, 78.33252%)" offset="0.75"/><stop stop-opacity="1" stop-color="rgb(48.956299%, 37.986755%, 78.48053%)" offset="0.753906"/><stop stop-opacity="1" stop-color="rgb(49.37439%, 38.092041%, 78.62854%)" offset="0.757812"/><stop stop-opacity="1" stop-color="rgb(49.79248%, 38.197327%, 78.775024%)" offset="0.761719"/><stop stop-opacity="1" stop-color="rgb(50.210571%, 38.302612%, 78.923035%)" offset="0.765625"/><stop stop-opacity="1" stop-color="rgb(50.628662%, 38.406372%, 79.071045%)" offset="0.769531"/><stop stop-opacity="1" stop-color="rgb(51.046753%, 38.511658%, 79.219055%)" offset="0.773438"/><stop stop-opacity="1" stop-color="rgb(51.464844%, 38.616943%, 79.367065%)" offset="0.777344"/><stop stop-opacity="1" stop-color="rgb(51.882935%, 38.722229%, 79.515076%)" offset="0.78125"/><stop stop-opacity="1" stop-color="rgb(52.2995%, 38.827515%, 79.663086%)" offset="0.785156"/><stop stop-opacity="1" stop-color="rgb(52.71759%, 38.9328%, 79.811096%)" offset="0.789063"/><stop stop-opacity="1" stop-color="rgb(53.135681%, 39.038086%, 79.957581%)" offset="0.792969"/><stop stop-opacity="1" stop-color="rgb(53.553772%, 39.143372%, 80.105591%)" offset="0.796875"/><stop stop-opacity="1" stop-color="rgb(53.971863%, 39.248657%, 80.253601%)" offset="0.800781"/><stop stop-opacity="1" stop-color="rgb(54.389954%, 39.353943%, 80.401611%)" offset="0.804688"/><stop stop-opacity="1" stop-color="rgb(54.808044%, 39.459229%, 80.549622%)" offset="0.808594"/><stop stop-opacity="1" stop-color="rgb(55.226135%, 39.564514%, 80.697632%)" offset="0.8125"/><stop stop-opacity="1" stop-color="rgb(55.644226%, 39.6698%, 80.845642%)" offset="0.816406"/><stop stop-opacity="1" stop-color="rgb(56.062317%, 39.775085%, 80.993652%)" offset="0.820312"/><stop stop-opacity="1" stop-color="rgb(56.480408%, 39.880371%, 81.140137%)" offset="0.824219"/><stop stop-opacity="1" stop-color="rgb(56.898499%, 39.985657%, 81.288147%)" offset="0.828125"/><stop stop-opacity="1" stop-color="rgb(57.315063%, 40.090942%, 81.436157%)" offset="0.832031"/><stop stop-opacity="1" stop-color="rgb(57.733154%, 40.196228%, 81.584167%)" offset="0.835938"/><stop stop-opacity="1" stop-color="rgb(58.151245%, 40.299988%, 81.732178%)" offset="0.839844"/><stop stop-opacity="1" stop-color="rgb(58.569336%, 40.405273%, 81.880188%)" offset="0.84375"/><stop stop-opacity="1" stop-color="rgb(58.987427%, 40.510559%, 82.028198%)" offset="0.847656"/><stop stop-opacity="1" stop-color="rgb(59.405518%, 40.615845%, 82.176208%)" offset="0.851562"/><stop stop-opacity="1" stop-color="rgb(59.823608%, 40.72113%, 82.324219%)" offset="0.855469"/><stop stop-opacity="1" stop-color="rgb(60.241699%, 40.826416%, 82.472229%)" offset="0.859375"/><stop stop-opacity="1" stop-color="rgb(60.65979%, 40.931702%, 82.618713%)" offset="0.863281"/><stop stop-opacity="1" stop-color="rgb(61.077881%, 41.036987%, 82.766724%)" offset="0.867188"/><stop stop-opacity="1" stop-color="rgb(61.495972%, 41.142273%, 82.914734%)" offset="0.871094"/><stop stop-opacity="1" stop-color="rgb(61.914062%, 41.247559%, 83.062744%)" offset="0.875"/><stop stop-opacity="1" stop-color="rgb(62.330627%, 41.352844%, 83.210754%)" offset="0.878906"/><stop stop-opacity="1" stop-color="rgb(62.748718%, 41.45813%, 83.358765%)" offset="0.882812"/><stop stop-opacity="1" stop-color="rgb(63.166809%, 41.563416%, 83.506775%)" offset="0.886719"/><stop stop-opacity="1" stop-color="rgb(63.5849%, 41.668701%, 83.654785%)" offset="0.890625"/><stop stop-opacity="1" stop-color="rgb(64.002991%, 41.773987%, 83.80127%)" offset="0.894531"/><stop stop-opacity="1" stop-color="rgb(64.421082%, 41.879272%, 83.94928%)" offset="0.898438"/><stop stop-opacity="1" stop-color="rgb(64.839172%, 41.983032%, 84.09729%)" offset="0.902344"/><stop stop-opacity="1" stop-color="rgb(65.257263%, 42.088318%, 84.2453%)" offset="0.90625"/><stop stop-opacity="1" stop-color="rgb(65.675354%, 42.193604%, 84.393311%)" offset="0.910156"/><stop stop-opacity="1" stop-color="rgb(66.093445%, 42.298889%, 84.541321%)" offset="0.914062"/><stop stop-opacity="1" stop-color="rgb(66.511536%, 42.404175%, 84.689331%)" offset="0.917969"/><stop stop-opacity="1" stop-color="rgb(66.929626%, 42.50946%, 84.837341%)" offset="0.921875"/><stop stop-opacity="1" stop-color="rgb(67.346191%, 42.614746%, 84.983826%)" offset="0.925781"/><stop stop-opacity="1" stop-color="rgb(67.764282%, 42.720032%, 85.131836%)" offset="0.929688"/><stop stop-opacity="1" stop-color="rgb(68.182373%, 42.825317%, 85.279846%)" offset="0.933594"/><stop stop-opacity="1" stop-color="rgb(68.600464%, 42.930603%, 85.427856%)" offset="0.9375"/><stop stop-opacity="1" stop-color="rgb(69.018555%, 43.035889%, 85.575867%)" offset="0.941406"/><stop stop-opacity="1" stop-color="rgb(69.436646%, 43.141174%, 85.723877%)" offset="0.945312"/><stop stop-opacity="1" stop-color="rgb(69.854736%, 43.24646%, 85.871887%)" offset="0.949219"/><stop stop-opacity="1" stop-color="rgb(70.272827%, 43.351746%, 86.019897%)" offset="0.953125"/><stop stop-opacity="1" stop-color="rgb(70.625305%, 43.440247%, 86.143494%)" offset="0.957031"/><stop stop-opacity="1" stop-color="rgb(70.979309%, 43.528748%, 86.268616%)" offset="0.960938"/><stop stop-opacity="1" stop-color="rgb(70.979309%, 43.528748%, 86.268616%)" offset="0.96875"/><stop stop-opacity="1" stop-color="rgb(70.979309%, 43.528748%, 86.268616%)" offset="1"/></linearGradient><clipPath id="1b22174d86"><rect x="0" width="757" y="0" height="810"/></clipPath><clipPath id="1329d7b255"><path d="M 0.507812 0 L 757 0 L 757 810 L 0.507812 810 Z M 0.507812 0 " clip-rule="nonzero"/></clipPath><clipPath id="75f0539f50"><rect x="0" width="757" y="0" height="810"/></clipPath><clipPath id="a418f872a3"><rect x="0" width="757" y="0" height="810"/></clipPath><mask id="ca428ce5ab"><g filter="url(#a92ac95d9b)"><g transform="matrix(1, 0, 0, 1, -0.000000000000113687, 0.000000000000039746)"><g clip-path="url(#a418f872a3)"><g clip-path="url(#1329d7b255)"><g transform="matrix(1, 0, 0, 1, -0.000000000000113687, 0.000000000000039746)"><g clip-path="url(#75f0539f50)"><g fill="#000000" fill-opacity="1"><g transform="translate(318.885464, 466.714537)"><g><path d="M 50.390625 1.640625 C 42.515625 1.640625 35.503906 0.664062 29.359375 -1.28125 C 23.210938 -3.226562 18.09375 -5.78125 14 -8.9375 C 9.90625 -12.101562 6.769531 -15.578125 4.59375 -19.359375 L 16.953125 -34.453125 L 18.890625 -34.453125 C 22.316406 -29.367188 26.660156 -25.320312 31.921875 -22.3125 C 37.179688 -19.3125 43.335938 -17.8125 50.390625 -17.8125 C 56.398438 -17.8125 60.9375 -19.078125 64 -21.609375 C 67.0625 -24.148438 68.59375 -27.65625 68.59375 -32.125 C 68.59375 -34.8125 68.097656 -37.0625 67.109375 -38.875 C 66.128906 -40.695312 64.5 -42.253906 62.21875 -43.546875 C 59.9375 -44.847656 56.847656 -45.960938 52.953125 -46.890625 L 38.34375 -50.234375 C 28.125 -52.566406 20.515625 -56.441406 15.515625 -61.859375 C 10.515625 -67.273438 8.015625 -74.316406 8.015625 -82.984375 C 8.015625 -89.410156 9.617188 -95.054688 12.828125 -99.921875 C 16.046875 -104.796875 20.722656 -108.582031 26.859375 -111.28125 C 33.003906 -113.976562 40.359375 -115.328125 48.921875 -115.328125 C 57.679688 -115.328125 65.179688 -114.171875 71.421875 -111.859375 C 77.671875 -109.554688 82.945312 -106.019531 87.25 -101.25 L 76.140625 -86.015625 L 74.1875 -86.015625 C 70.976562 -89.378906 67.296875 -91.90625 63.140625 -93.59375 C 58.992188 -95.28125 54.253906 -96.125 48.921875 -96.125 C 42.742188 -96.125 38.046875 -95.035156 34.828125 -92.859375 C 31.617188 -90.679688 30.015625 -87.671875 30.015625 -83.828125 C 30.015625 -80.253906 31.140625 -77.40625 33.390625 -75.28125 C 35.648438 -73.15625 39.554688 -71.492188 45.109375 -70.296875 L 60.03125 -67.1875 C 71.070312 -64.851562 79.082031 -60.898438 84.0625 -55.328125 C 89.039062 -49.753906 91.53125 -42.484375 91.53125 -33.515625 C 91.53125 -26.410156 90 -20.226562 86.9375 -14.96875 C 83.882812 -9.707031 79.269531 -5.625 73.09375 -2.71875 C 66.925781 0.1875 59.359375 1.640625 50.390625 1.640625 Z M 50.390625 1.640625 "/></g></g></g><g fill="#000000" fill-opacity="1"><g transform="translate(416.560933, 466.714537)"><g><path d="M 61.984375 1.640625 C 51.554688 1.640625 42.363281 -0.484375 34.40625 -4.734375 C 26.445312 -8.992188 20.210938 -15.488281 15.703125 -24.21875 C 11.191406 -32.957031 8.9375 -43.832031 8.9375 -56.84375 C 8.9375 -69.851562 11.191406 -80.726562 15.703125 -89.46875 C 20.210938 -98.207031 26.445312 -104.703125 34.40625 -108.953125 C 42.363281 -113.203125 51.554688 -115.328125 61.984375 -115.328125 C 72.398438 -115.328125 81.570312 -113.210938 89.5 -108.984375 C 97.4375 -104.765625 103.644531 -98.269531 108.125 -89.5 C 112.613281 -80.738281 114.859375 -69.851562 114.859375 -56.84375 C 114.859375 -43.832031 112.613281 -32.945312 108.125 -24.1875 C 103.644531 -15.425781 97.4375 -8.929688 89.5 -4.703125 C 81.570312 -0.472656 72.398438 1.640625 61.984375 1.640625 Z M 61.984375 -17.890625 C 71.617188 -17.890625 78.976562 -20.984375 84.0625 -27.171875 C 89.144531 -33.367188 91.6875 -43.257812 91.6875 -56.84375 C 91.6875 -70.425781 89.144531 -80.328125 84.0625 -86.546875 C 78.976562 -92.773438 71.617188 -95.890625 61.984375 -95.890625 C 52.285156 -95.890625 44.882812 -92.773438 39.78125 -86.546875 C 34.675781 -80.328125 32.125 -70.425781 32.125 -56.84375 C 32.125 -43.257812 34.675781 -33.367188 39.78125 -27.171875 C 44.882812 -20.984375 52.285156 -17.890625 61.984375 -17.890625 Z M 61.984375 -17.890625 "/></g></g></g><g fill="#000000" fill-opacity="1"><g transform="translate(540.443925, 466.714537)"><g><path d="M 86.859375 -113.6875 L 86.859375 -94.875 L 37.25 -94.875 L 37.25 -64.78125 L 82.28125 -64.78125 L 82.28125 -46.1875 L 37.25 -46.1875 L 37.25 0 L 14.78125 0 L 14.78125 -113.6875 Z M 86.859375 -113.6875 "/></g></g></g><g fill="#000000" fill-opacity="1"><g transform="translate(632.364603, 466.714537)"><g><path d="M 91.140625 -113.6875 L 91.140625 -94.796875 L 58.328125 -94.796875 L 58.328125 0 L 35.921875 0 L 35.921875 -94.796875 L 3.109375 -94.796875 L 3.109375 -113.6875 Z M 91.140625 -113.6875 "/></g></g></g></g></g></g></g></g></g></mask><clipPath id="59b87d4ee7"><path d="M 0.507812 0 L 757 0 L 757 810 L 0.507812 810 Z M 0.507812 0 " clip-rule="nonzero"/></clipPath><clipPath id="d2f58aec20"><rect x="0" width="757" y="0" height="810"/></clipPath><clipPath id="2fb967b79d"><rect x="0" width="757" y="0" height="810"/></clipPath><clipPath id="5b4d764558"><rect x="0" width="758" y="0" height="810"/></clipPath></defs><g transform="matrix(1, 0, 0, 1, 30, 295)"><g clip-path="url(#55b71ba583)"><g fill="#ffffff" fill-opacity="1"><g transform="translate(0.378725, 169.848325)"><g><path d="M 90.359375 28.3125 C 80.359375 28.3125 72.050781 25.898438 65.4375 21.078125 C 58.832031 16.253906 54.390625 9.539062 52.109375 0.9375 C 43.441406 -0.3125 35.878906 -3.253906 29.421875 -7.890625 C 22.972656 -12.535156 17.945312 -18.953125 14.34375 -27.140625 C 10.738281 -35.328125 8.9375 -45.226562 8.9375 -56.84375 C 8.9375 -69.851562 11.191406 -80.726562 15.703125 -89.46875 C 20.210938 -98.207031 26.445312 -104.703125 34.40625 -108.953125 C 42.363281 -113.203125 51.554688 -115.328125 61.984375 -115.328125 C 72.398438 -115.328125 81.570312 -113.210938 89.5 -108.984375 C 97.4375 -104.765625 103.644531 -98.269531 108.125 -89.5 C 112.613281 -80.738281 114.859375 -69.851562 114.859375 -56.84375 C 114.859375 -39.84375 111.21875 -26.789062 103.9375 -17.6875 C 96.65625 -8.59375 86.425781 -2.929688 73.25 -0.703125 L 72.859375 0.859375 C 74.472656 3.609375 76.875 5.71875 80.0625 7.1875 C 83.25 8.664062 86.96875 9.40625 91.21875 9.40625 C 94.644531 9.40625 97.726562 8.96875 100.46875 8.09375 L 102.03125 8.40625 L 105.21875 25.96875 C 103.5625 26.59375 101.332031 27.140625 98.53125 27.609375 C 95.726562 28.078125 93.003906 28.3125 90.359375 28.3125 Z M 61.984375 -17.890625 C 71.617188 -17.890625 78.976562 -20.984375 84.0625 -27.171875 C 89.144531 -33.367188 91.6875 -43.257812 91.6875 -56.84375 C 91.6875 -70.425781 89.144531 -80.328125 84.0625 -86.546875 C 78.976562 -92.773438 71.617188 -95.890625 61.984375 -95.890625 C 52.285156 -95.890625 44.882812 -92.773438 39.78125 -86.546875 C 34.675781 -80.328125 32.125 -70.425781 32.125 -56.84375 C 32.125 -43.257812 34.675781 -33.367188 39.78125 -27.171875 C 44.882812 -20.984375 52.285156 -17.890625 61.984375 -17.890625 Z M 61.984375 -17.890625 "/></g></g></g><g fill="#ffffff" fill-opacity="1"><g transform="translate(124.261704, 169.848325)"><g><path d="M 60.265625 1.640625 C 44.609375 1.640625 32.992188 -2.078125 25.421875 -9.515625 C 17.859375 -16.960938 14.078125 -27.992188 14.078125 -42.609375 L 14.078125 -113.6875 L 36.078125 -113.6875 L 36.078125 -42.765625 C 36.078125 -34.472656 38.070312 -28.253906 42.0625 -24.109375 C 46.0625 -19.960938 52.128906 -17.890625 60.265625 -17.890625 C 76.390625 -17.890625 84.453125 -26.179688 84.453125 -42.765625 L 84.453125 -113.6875 L 106.46875 -113.6875 L 106.46875 -42.609375 C 106.46875 -27.992188 102.679688 -16.960938 95.109375 -9.515625 C 87.535156 -2.078125 75.921875 1.640625 60.265625 1.640625 Z M 60.265625 1.640625 "/></g></g></g><g fill="#ffffff" fill-opacity="1"><g transform="translate(244.800686, 169.848325)"><g><path d="M 37.25 -49.921875 L 37.25 -18.8125 L 91.53125 -18.8125 L 91.53125 0 L 14.78125 0 L 14.78125 -113.6875 L 90.28125 -113.6875 L 90.28125 -94.875 L 37.25 -94.875 L 37.25 -68.28125 L 83.59375 -68.28125 L 83.59375 -49.921875 Z M 37.25 -49.921875 "/></g></g></g><g fill="#ffffff" fill-opacity="1"><g transform="translate(342.553935, 169.848325)"><g><path d="M 50.390625 1.640625 C 42.515625 1.640625 35.503906 0.664062 29.359375 -1.28125 C 23.210938 -3.226562 18.09375 -5.78125 14 -8.9375 C 9.90625 -12.101562 6.769531 -15.578125 4.59375 -19.359375 L 16.953125 -34.453125 L 18.890625 -34.453125 C 22.316406 -29.367188 26.660156 -25.320312 31.921875 -22.3125 C 37.179688 -19.3125 43.335938 -17.8125 50.390625 -17.8125 C 56.398438 -17.8125 60.9375 -19.078125 64 -21.609375 C 67.0625 -24.148438 68.59375 -27.65625 68.59375 -32.125 C 68.59375 -34.8125 68.097656 -37.0625 67.109375 -38.875 C 66.128906 -40.695312 64.5 -42.253906 62.21875 -43.546875 C 59.9375 -44.847656 56.847656 -45.960938 52.953125 -46.890625 L 38.34375 -50.234375 C 28.125 -52.566406 20.515625 -56.441406 15.515625 -61.859375 C 10.515625 -67.273438 8.015625 -74.316406 8.015625 -82.984375 C 8.015625 -89.410156 9.617188 -95.054688 12.828125 -99.921875 C 16.046875 -104.796875 20.722656 -108.582031 26.859375 -111.28125 C 33.003906 -113.976562 40.359375 -115.328125 48.921875 -115.328125 C 57.679688 -115.328125 65.179688 -114.171875 71.421875 -111.859375 C 77.671875 -109.554688 82.945312 -106.019531 87.25 -101.25 L 76.140625 -86.015625 L 74.1875 -86.015625 C 70.976562 -89.378906 67.296875 -91.90625 63.140625 -93.59375 C 58.992188 -95.28125 54.253906 -96.125 48.921875 -96.125 C 42.742188 -96.125 38.046875 -95.035156 34.828125 -92.859375 C 31.617188 -90.679688 30.015625 -87.671875 30.015625 -83.828125 C 30.015625 -80.253906 31.140625 -77.40625 33.390625 -75.28125 C 35.648438 -73.15625 39.554688 -71.492188 45.109375 -70.296875 L 60.03125 -67.1875 C 71.070312 -64.851562 79.082031 -60.898438 84.0625 -55.328125 C 89.039062 -49.753906 91.53125 -42.484375 91.53125 -33.515625 C 91.53125 -26.410156 90 -20.226562 86.9375 -14.96875 C 83.882812 -9.707031 79.269531 -5.625 73.09375 -2.71875 C 66.925781 0.1875 59.359375 1.640625 50.390625 1.640625 Z M 50.390625 1.640625 "/></g></g></g><g fill="#ffffff" fill-opacity="1"><g transform="translate(438.9073, 169.848325)"><g><path d="M 91.140625 -113.6875 L 91.140625 -94.796875 L 58.328125 -94.796875 L 58.328125 0 L 35.921875 0 L 35.921875 -94.796875 L 3.109375 -94.796875 L 3.109375 -113.6875 Z M 91.140625 -113.6875 "/></g></g></g><g fill="#ffffff" fill-opacity="1"><g transform="translate(533.161067, 169.848325)"><g><path d="M 37.25 0 L 14.78125 0 L 14.78125 -113.6875 L 37.25 -113.6875 Z M 37.25 0 "/></g></g></g><g fill="#ffffff" fill-opacity="1"><g transform="translate(585.264994, 169.848325)"><g><path d="M 62.140625 1.640625 C 51.660156 1.640625 42.425781 -0.535156 34.4375 -4.890625 C 26.457031 -9.253906 20.210938 -15.800781 15.703125 -24.53125 C 11.191406 -33.269531 8.9375 -44.039062 8.9375 -56.84375 C 8.9375 -69.65625 11.191406 -80.425781 15.703125 -89.15625 C 20.210938 -97.894531 26.457031 -104.441406 34.4375 -108.796875 C 42.425781 -113.148438 51.660156 -115.328125 62.140625 -115.328125 C 73.078125 -115.328125 82.367188 -113.1875 90.015625 -108.90625 C 97.660156 -104.632812 103.117188 -98.117188 106.390625 -89.359375 L 89.96875 -79.328125 L 88.03125 -79.40625 C 85.59375 -85.3125 82.285156 -89.546875 78.109375 -92.109375 C 73.941406 -94.679688 68.617188 -95.96875 62.140625 -95.96875 C 52.703125 -95.96875 45.335938 -92.84375 40.046875 -86.59375 C 34.765625 -80.34375 32.125 -70.425781 32.125 -56.84375 C 32.125 -43.3125 34.765625 -33.421875 40.046875 -27.171875 C 45.335938 -20.929688 52.703125 -17.8125 62.140625 -17.8125 C 76.910156 -17.8125 85.957031 -24.988281 89.28125 -39.34375 L 91.21875 -39.34375 L 107.78125 -30.71875 C 104.675781 -19.9375 99.363281 -11.847656 91.84375 -6.453125 C 84.320312 -1.054688 74.421875 1.640625 62.140625 1.640625 Z M 62.140625 1.640625 "/></g></g></g><g fill="#ffffff" fill-opacity="1"><g transform="translate(696.783031, 169.848325)"><g><path d="M 37.25 0 L 14.78125 0 L 14.78125 -113.6875 L 37.25 -113.6875 Z M 37.25 0 "/></g></g></g><g fill="#ffffff" fill-opacity="1"><g transform="translate(748.886958, 169.848325)"><g><path d="M 91.140625 -113.6875 L 91.140625 -94.796875 L 58.328125 -94.796875 L 58.328125 0 L 35.921875 0 L 35.921875 -94.796875 L 3.109375 -94.796875 L 3.109375 -113.6875 Z M 91.140625 -113.6875 "/></g></g></g><g fill="#ffffff" fill-opacity="1"><g transform="translate(843.140675, 169.848325)"><g><path d="M 62.296875 0 L 39.8125 0 L 39.8125 -44.640625 L 0.546875 -113.6875 L 24.65625 -113.6875 L 50.625 -68.984375 L 52.5625 -68.984375 L 78 -113.6875 L 101.5625 -113.6875 L 62.296875 -44.640625 Z M 62.296875 0 "/></g></g></g></g></g><g transform="matrix(1, 0, 0, 1, 682, 0.000000000000039746)"><g clip-path="url(#5b4d764558)"><g clip-path="url(#77855af4a7)"><g transform="matrix(1, 0, 0, 1, 1, 0.000000000000039746)"><g clip-path="url(#2fb967b79d)"><g clip-path="url(#96ff7bb9e3)"><g mask="url(#ca428ce5ab)"><g transform="matrix(1, 0, 0, 1, -0.000000000000113687, 0.000000000000039746)"><g clip-path="url(#d2f58aec20)"><g clip-path="url(#59b87d4ee7)"><path fill="url(#07a1fb0d85)" d="M 0.507812 0 L 0.507812 810 L 757 810 L 757 0 Z M 0.507812 0 " fill-rule="nonzero"/></g></g></g></g></g></g></g></g></g></g></svg>